<svg width="94" height="28" viewBox="0 0 94 28" fill="none" xmlns="http://www.w3.org/2000/svg">
<path d="M21.276 1.976V27H16.346V16.834H5.16V27H0.23V1.976H5.16V12.074H16.346V1.976H21.276ZM34.2502 27.408C32.4369 27.408 30.8955 27.068 29.6262 26.388C28.3795 25.708 27.4275 24.7673 26.7702 23.566C26.1129 22.3647 25.7842 20.982 25.7842 19.418C25.7842 17.922 26.1695 16.5733 26.9402 15.372C27.7109 14.1707 28.7422 13.2187 30.0342 12.516C31.3262 11.7907 32.7655 11.428 34.3522 11.428C36.4829 11.428 38.2282 12.0513 39.5882 13.298C40.9709 14.522 41.8662 16.3013 42.2742 18.636L31.3942 22.104C32.1195 22.9427 33.1055 23.362 34.3522 23.362C34.8735 23.362 35.3722 23.2713 35.8482 23.09C36.3469 22.9087 36.8342 22.6707 37.3102 22.376L39.4182 25.912C38.6249 26.3653 37.7635 26.728 36.8342 27C35.9275 27.272 35.0662 27.408 34.2502 27.408ZM30.4762 19.146C30.4762 19.2593 30.4762 19.3613 30.4762 19.452L37.0042 17.242C36.8002 16.6753 36.4715 16.188 36.0182 15.78C35.5649 15.3493 34.8849 15.134 33.9782 15.134C32.9129 15.134 32.0629 15.4967 31.4282 16.222C30.7935 16.9473 30.4762 17.922 30.4762 19.146ZM45.7332 27V0.173999H50.4932V16.97L57.5652 11.768L60.4552 14.318L55.1852 18.296L60.9992 27H55.4572L51.8192 20.812L50.4932 21.798V27H45.7332ZM65.6877 5.614H70.4477V12.074H74.0517V15.78H70.4477V27H65.6877V15.78H63.3757V12.074H65.6877V5.614ZM76.5186 19.384C76.5186 17.8653 76.8699 16.5053 77.5726 15.304C78.2979 14.1027 79.3066 13.162 80.5986 12.482C81.8906 11.7793 83.3752 11.428 85.0526 11.428C86.7526 11.428 88.2259 11.7793 89.4726 12.482C90.7192 13.162 91.6712 14.1027 92.3286 15.304C93.0086 16.5053 93.3486 17.8653 93.3486 19.384C93.3486 20.9027 93.0086 22.274 92.3286 23.498C91.6712 24.6993 90.7192 25.6513 89.4726 26.354C88.2259 27.0567 86.7299 27.408 84.9846 27.408C83.3526 27.408 81.8906 27.0907 80.5986 26.456C79.3292 25.8213 78.3319 24.9033 77.6066 23.702C76.8812 22.5007 76.5186 21.0613 76.5186 19.384ZM81.3126 19.418C81.3126 20.5967 81.6526 21.5827 82.3326 22.376C83.0126 23.1467 83.8739 23.532 84.9166 23.532C86.0272 23.532 86.9112 23.1467 87.5686 22.376C88.2259 21.5827 88.5546 20.5967 88.5546 19.418C88.5546 18.2393 88.2259 17.2647 87.5686 16.494C86.9112 15.7007 86.0272 15.304 84.9166 15.304C83.8739 15.304 83.0126 15.7007 82.3326 16.494C81.6526 17.2647 81.3126 18.2393 81.3126 19.418Z" fill="#0D0E43"/>
</svg>
